# xmcd CD database file
#
# Track frame offsets:
#	150
#	19828
#	31637
#	44506
#	59702
#	84006
#	103045
#	112304
#	130821
#	144711
#
# Disc length: 1990 seconds
#
# Revision: 1
# Processed by: cddbd v1.5.2PL0 Copyright (c) Steve Scherf et al.
# Submitted via: CDex 1.70beta2
#
DISCID=8807c40a
DTITLE=Melody Gardot - Worrisome Heart
DYEAR=2008
DGENRE=Jazz
TTITLE0=Worrisome Heart
TTITLE1=All That I Need Is Love
TTITLE2=Gone
TTITLE3=Sweet Memory
TTITLE4=Some Lessons
TTITLE5=Quiet Fire
TTITLE6=One Day
TTITLE7=Love Me Like A River Does
TTITLE8=Goodnite
TTITLE9=Twilight
EXTD=YEAR: 2008
EXTT0=
EXTT1=
EXTT2=
EXTT3=
EXTT4=
EXTT5=
EXTT6=
EXTT7=
EXTT8=
EXTT9=
PLAYORDER=
